<?xml version="1.0" encoding="UTF-8" standalone="no"?><!DOCTYPE svg PUBLIC "-//W3C//DTD SVG 1.1//EN" "http://www.w3.org/Graphics/SVG/1.1/DTD/svg11.dtd"><svg width="100%" height="100%" viewBox="0 0 3508 2481" version="1.1" xmlns="http://www.w3.org/2000/svg" xmlns:xlink="http://www.w3.org/1999/xlink" xml:space="preserve" xmlns:serif="http://www.serif.com/" style="fill-rule:evenodd;clip-rule:evenodd;stroke-linejoin:round;stroke-miterlimit:1.5;"><g><text x="1489.314px" y="1326.502px" style="font-family:'DMSans-Bold', 'DM Sans';font-weight:700;font-size:833.333px;fill:#7200ff;">g</text><g transform="matrix(833.333333,0,0,833.333333,1726.381668,1300.320925)"></g><text x="1283.048px" y="1300.321px" style="font-family:'DMSans-Bold', 'DM Sans';font-weight:700;font-size:833.333px;fill:#501e8e;">s</text><path d="M1633.061,914.657c0,0 -74.297,34.619 -80.969,127.83" style="fill:none;stroke:#fff;stroke-width:20.83px;"/><path d="M1686.382,1221.903c0,0 -35.786,90.209 -160.401,96.685" style="fill:none;stroke:#fff;stroke-width:16.67px;"/><path d="M1634.731,917.335c0,0 -34.854,15.973 -58.333,55.417c-23.48,39.444 -20.163,75.59 -20.163,75.59l81.451,9.89c0,0 14.328,-43.067 37.155,-59.571c11.436,-8.268 2.511,-45.152 2.372,-51.751c-0.362,-17.25 -42.483,-29.574 -42.483,-29.574Z" style="fill:#7200ff;"/></g></svg>